# xmcd
#
# Track frame offsets:
#   150
#   15162
#   31332
#   48135
#   71133
#   87416
#   104081
#   120680
#   143356
#   159473
#   175278
#   192088
#   209870
#   226165
#   244911
#   263792
#   278931
#   296345
#
# Disc length: 4204 seconds
#
# Revision: 0
# Processed by: cddbd v1.5.2PL0 Copyright (c) Steve Scherf et al.
# Submitted via: uFREEDB 1.6.2
#
DISCID=00106a12
DTITLE=Wolfgang Petry - Alles 2
DYEAR=1900
DGENRE=Dance
TTITLE0=Auf deinem weiten Weg 
TTITLE1=Auf deinem weiten Weg 
TTITLE2=Auf deinem weiten Weg 
TTITLE3=Auf deinem weiten Weg 
TTITLE4=Auf deinem weiten Weg 
TTITLE5=Auf deinem weiten Weg 
TTITLE6=Auf deinem weiten Weg 
TTITLE7=Auf deinem weiten Weg 
TTITLE8=Auf deinem weiten Weg 
TTITLE9=Auf deinem weiten Weg 
TTITLE10=Auf deinem weiten Weg 
TTITLE11=Auf deinem weiten Weg 
TTITLE12=Auf deinem weiten Weg 
TTITLE13=Auf deinem weiten Weg 
TTITLE14=Auf deinem weiten Weg 
TTITLE15=Auf deinem weiten Weg 
TTITLE16=Auf deinem weiten Weg 
TTITLE17=Auf deinem weiten Weg 
EXTD=
EXTT0=
EXTT1=
EXTT2=
EXTT3=
EXTT4=
EXTT5=
EXTT6=
EXTT7=
EXTT8=
EXTT9=
EXTT10=
EXTT11=
EXTT12=
EXTT13=
EXTT14=
EXTT15=
EXTT16=
EXTT17=
PLAYORDER=
